#N canvas 1226 589 500 426 12;
#X obj 107 197 vsl 15 128 0 1 0 0 empty empty empty 0 -9 0 10 #dfdfdf
#000000 #000000 0 1;
#X obj 32 395 dac~;
#X obj 32 351 *~;
#X obj 25 239 osc~;
#X obj 25 20 netreceive -u -b 3333;
#X floatatom 25 108 2 0 0 0 - - - 0;
#X floatatom 66 108 4 0 0 0 - - - 0;
#X obj 25 195 +, f 6;
#X obj 25 151 * 256;
#X obj 25 64 unpack f f f;
#X obj 107 151 / 256;
#X floatatom 107 108 5 0 0 0 - - - 0;
#X connect 0 0 2 1;
#X connect 2 0 1 0;
#X connect 2 0 1 1;
#X connect 3 0 2 0;
#X connect 4 0 9 0;
#X connect 5 0 8 0;
#X connect 6 0 7 1;
#X connect 7 0 3 0;
#X connect 8 0 7 0;
#X connect 9 0 5 0;
#X connect 9 1 6 0;
#X connect 9 2 11 0;
#X connect 10 0 0 0;
#X connect 11 0 10 0;
